{"title":"Rango 2011 DVD9rip Dutch spoken Klam","uid":6501323,"size":1760458711,"categoryP":"video","categoryS":"movies","magnet":"?xt=urn:btih:f10ef83a7d83ef33e2b165403a7b696155319fb6&amp;dn=Rango+2011+DVD9rip+Dutch+spoken+Klam&amp;tr=udp%3A%2F%2Ftracker.openbittorrent.com%3A80&amp;tr=udp%3A%2F%2Fopen.demonii.com%3A1337&amp;tr=udp%3A%2F%2Ftracker.coppersurfer.tk%3A6969&amp;tr=udp%3A%2F%2Fexodus.desync.com%3A6969","seeders":1,"leechers":0,"uploader":"Klambake","files":-1,"time":1309257581,"description":"With: famous Dutch voices,\n\nAls een naamloze kameleon (Johnny Depp) uit zijn terrarium vrij komt, staat hij plots midden in de woestijn. Hij was zijn leventje tussen vier ramen toch al zat, maar wat nu? Een buidelrat stuurt hem op weg richting het stadje Dirt, ergens op de grens van beschaving. Daar doet de hagedis zich voor als Rango, een onverschrokken pistoolheld. Het stadje staat door gebrek aan water op het punt van uitdrogen. Het is aan Rango om Dirt van de ondergang te redden.\n\nRango is an ordinary chameleon who accidentally winds up in the town of Dirt, a lawless outpost in the Wild West in desperate need of a new sheriff. \n\nNederlands gesproken\n\n------------------ Dutch Friends ------------------\nYou can find my Friends at: http://www.Film-Test.nl \n------ They got my dutchs subs ---- and more ------\n\nGeneral:\n\nComplete name                    : Rango\\Rango.avi\nFormat                           : AVI\nFormat/Info                      : Audio Video Interleave\nFile size                        : 1.64 GiB\nDuration                         : 1h 45mn\nOverall bit rate                 : 2 223 Kbps\n\nVideo:\n\nFormat                           : MPEG-4 Visual\nFormat profile                   : Simple@L3\nFormat settings, BVOP            : No\nFormat settings, QPel            : No\nFormat settings, GMC             : No warppoints\nFormat settings, Matrix          : Default (H.263)\nCodec ID                         : XVID\nCodec ID/Hint                    : XviD\nDuration                         : 1h 45mn\nBit rate                         : 1 764 Kbps\nWidth                            : 720 pixels\nHeight                           : 304 pixels\nDisplay aspect ratio             : 2.35:1\nFrame rate                       : 25.000 fps\nColor space                      : YUV\nChroma subsampling               : 4:2:0\nBit depth                        : 8 bits\nScan type                        : Progressive\nBits/(Pixel*Frame)               : 0.322\nStream size                      : 1.30 GiB (79%)\nWriting library                  : XviD 1.1.2 (UTC 2006-11-01)\n\nAudio:\n\nFormat                           : AC-3\nFormat/Info                      : Audio Coding 3\nMode extension                   : CM (complete main)\nCodec ID                         : 2000\nDuration                         : 1h 45mn\nBit rate mode                    : Constant\nBit rate                         : 448 Kbps\nChannel(s)                       : 6 channels\nChannel positions                : Front: L C R, Side: L R, LFE\nSampling rate                    : 48.0 KHz\nBit depth                        : 16 bits\nStream size                      : 338 MiB (20%)\nAlignment                        : Aligned on interleaves\nInterleave, duration             : 32 ms (0.80 video frame)\n\n\n","torrent":{"xt":"urn:btih:f10ef83a7d83ef33e2b165403a7b696155319fb6","amp;dn":"Rango+2011+DVD9rip+Dutch+spoken+Klam","amp;tr":["udp%3A%2F%2Ftracker.openbittorrent.com%3A80","udp%3A%2F%2Fopen.demonii.com%3A1337","udp%3A%2F%2Ftracker.coppersurfer.tk%3A6969","udp%3A%2F%2Fexodus.desync.com%3A6969"],"infoHash":"f10ef83a7d83ef33e2b165403a7b696155319fb6","infoHashBuffer":{"type":"Buffer","data":[241,14,248,58,125,131,239,51,226,177,101,64,58,123,105,97,85,49,159,182]},"announce":[],"urlList":[]}}